# xmcd
# Copyright
#
# Track frame offsets:
#	150
#	19261
#	36876
#	60852
#	80226
#	101665
#	120406
#	145348
#	166779
#	186556
#	206837
#	222479
#	240719
#	277910
#	300899
#	316719
#
# Disc length: 4618 seconds
#
# Revision: 5
# Processed by: cddbd v1.4b41PL1 Copyright (c) Steve Scherf et al.
# Submitted via: CdAid 2001.03.30.01
#
DISCID=dc120810
DTITLE=Santana  - The Best Of Santana
DYEAR=1900
DGENRE=
TTITLE0=Jingo
TTITLE1=Evil Ways
TTITLE2=Black Magic Woman/Gypsy Queen
TTITLE3=Oye Como Va
TTITLE4=Samba Pa Ti
TTITLE5=She's Not There
TTITLE6=No One To Depend On
TTITLE7=Open Invitation
TTITLE8=Hold On
TTITLE9=Bella
TTITLE10=Winning
TTITLE11=All I Ever Wanted
TTITLE12=Dance Sister Dance (Baila Mi Hermana)
TTITLE13=Europa (Earth's Cry, Heaven's Smile)
TTITLE14=Everybody's Everything
TTITLE15=Soul Sacrifice
EXTD=
EXTT0=
EXTT1=
EXTT2=
EXTT3=
EXTT4=
EXTT5=
EXTT6=
EXTT7=
EXTT8=
EXTT9=
EXTT10=
EXTT11=
EXTT12=
EXTT13=
EXTT14=
EXTT15=
PLAYORDER=
